<?xml version="1.0" encoding="UTF-8"?><svg id="Capa_2" xmlns="http://www.w3.org/2000/svg" width="410.12" height="374.92" viewBox="0 0 410.12 374.92"><g id="Capa_1"><path d="M410.12,120.11c0,21.38-5.67,42.77-17.02,61.69-2.68,4.49-5.69,8.83-9.02,13-2.82,3.55-5.87,6.98-9.16,10.26l-169.86,169.86L35.19,205.06c-3.32-3.32-6.41-6.79-9.25-10.38-3.32-4.18-6.32-8.52-8.99-13.01C-10.63,135.54-4.55,74.9,35.19,35.19,58.66,11.72,89.39,0,120.11,0s61.5,11.72,84.95,35.19c46.91-46.92,122.95-46.92,169.86,0,23.47,23.45,35.2,54.17,35.2,84.92Z" fill="#fff"/><path d="M393.1,181.8h-113.49l-29.84-46.32-12.12,51.33-11.59,55.43-18.66-55.12-.26-.75-41.1-147.57-44.25,142.99-104.84-.12c2.67,4.49,5.67,8.83,8.99,13.01l105.43.12,34.01-109.9,29.29,105.14,34.36,101.52,21.06-100.78,5.31-22.56,17.12,26.58h111.56l9.02-13h0Z" fill="#e50811"/></g></svg>